<svg width="25" height="25" fill="none" xmlns="http://www.w3.org/2000/svg"><g clip-path="url(#a)"><path d="M12.5 9.5a3 3 0 1 0 0 6 3 3 0 0 0 0-6Zm7-2.3a3 3 0 0 0-1.7-1.7c-1.2-.4-4-.3-5.3-.3-1.3 0-4-.1-5.3.3a3 3 0 0 0-1.7 1.7c-.4 1.2-.3 4-.3 5.3 0 1.3-.1 4 .3 5.3a3 3 0 0 0 1.7 1.7c1.2.4 4 .3 5.3.3 1.3 0 4 .1 5.3-.3a3 3 0 0 0 1.7-1.7c.4-1.2.3-4 .3-5.3 0-1.3.1-4-.3-5.3Zm-7 9.9a4.6 4.6 0 1 1 0-9.2 4.6 4.6 0 0 1 0 9.2Zm4.8-8.3Zm5-8.8H2.7A2.7 2.7 0 0 0 0 2.7v19.6A2.7 2.7 0 0 0 2.7 25h19.6a2.7 2.7 0 0 0 2.7-2.7V2.7A2.7 2.7 0 0 0 22.3 0Zm-1 16.2c0 1.4-.3 2.7-1.4 3.7-1 1-2.3 1.4-3.7 1.5H8.8c-1.4-.1-2.7-.4-3.7-1.5-1-1-1.4-2.3-1.5-3.7V8.8c.1-1.4.4-2.7 1.5-3.7 1-1 2.3-1.4 3.7-1.5h7.4c1.4.1 2.7.4 3.7 1.5 1 1 1.4 2.3 1.5 3.7v7.4Z" fill="#000"/></g><defs><clipPath id="a"><path fill="#fff" d="M0 0h25v25H0z"/></clipPath></defs></svg>