<svg width="25" height="25" fill="none" xmlns="http://www.w3.org/2000/svg"><g clip-path="url(#a)"><path d="M22.3 0H2.7A2.7 2.7 0 0 0 0 2.7v19.6C0 23.8 1.2 25 2.7 25h19.6c1.5 0 2.7-1.2 2.7-2.7V2.7C25 1.2 23.8 0 22.3 0Zm-2.7 8.9v.4c0 4.9-3.7 10.4-10.4 10.4-2 0-4-.6-5.6-1.6h.9c1.7 0 3.2-.5 4.5-1.5-1.6 0-3-1.1-3.4-2.5l1.6-.1c-1.6-.4-2.9-1.8-2.9-3.6.5.2 1 .4 1.6.4A3.7 3.7 0 0 1 5 6c1.7 2.2 4.4 3.7 7.5 3.8a3.7 3.7 0 0 1 6.2-3.3c.8-.2 1.6-.5 2.3-.9-.2.9-.8 1.6-1.6 2 .8 0 1.5-.3 2.1-.5-.5.7-1 1.3-1.8 1.9Z" fill="#000"/></g><defs><clipPath id="a"><path fill="#fff" d="M0 0h25v25H0z"/></clipPath></defs></svg>