<svg width="25" height="25" fill="none" xmlns="http://www.w3.org/2000/svg"><g clip-path="url(#a)"><path d="M16.3 0H8.7C1.7 0 0 1.7 0 8.7v7.6c0 7 1.7 8.7 8.7 8.7h7.6c7 0 8.7-1.7 8.7-8.7V8.7c0-7-1.7-8.7-8.7-8.7Zm3.9 17.8h-1.8c-.7 0-1-.5-2.2-1.8-1-1-1.5-1.1-1.8-1.1-.4 0-.5 0-.5.6V17c0 .5-.1.7-1.3.7-1.9 0-4-1.1-5.5-3.3a14.6 14.6 0 0 1-2.9-6c0-.3.1-.6.6-.6h1.8c.5 0 .7.2.8.7 1 2.6 2.4 4.9 3 4.9.3 0 .4-.1.4-.7v-2.7c0-1.2-.7-1.3-.7-1.8 0-.2.2-.4.4-.4h2.9c.4 0 .5.2.5.7v3.6c0 .4.2.5.3.5.2 0 .4-.1.8-.5 1.4-1.5 2.3-3.8 2.3-3.8.1-.2.3-.5.8-.5h1.8c.5 0 .7.3.5.7-.2 1-2.4 4.2-2.4 4.2-.2.3-.3.5 0 .8l1.2 1.3c.8 1 1.4 1.6 1.6 2.2.2.5-.1.7-.6.7Z" fill="#000"/></g><defs><clipPath id="a"><path fill="#fff" d="M0 0h25v25H0z"/></clipPath></defs></svg>