<svg width="25" height="25" fill="none" xmlns="http://www.w3.org/2000/svg"><path d="M19.7 18.7h-1.3v-.8c0-.3.3-.6.6-.6h.1c.4 0 .6.3.6.6v.8ZM15 17c-.3 0-.6.3-.6.5v3.7c0 .3.3.5.6.5s.6-.2.6-.5v-3.7c0-.2-.3-.5-.6-.5Zm7.8-2v7c0 1.6-1.4 3-3.2 3H6.4a3.1 3.1 0 0 1-3.2-3v-7c0-1.7 1.4-3 3.2-3h13.1c1.8 0 3.2 1.3 3.2 3ZM7.3 22.7v-7.3h1.6v-1.1H4.5v1H6v7.4h1.4Zm4.8-6.2h-1.3v4.9c-.1.2-.6.6-.8 0v-5H8.6v5.2c0 .4 0 .8.4 1 .6.4 1.8 0 2-.7v.8h1.1v-6.2Zm4.4 4.5v-3.3c0-1.3-1-2-2.2-1v-2.4H13v8.4h1l.2-.6c1.4 1.3 2.3.4 2.3-1.1Zm4.2-.5h-1v.7c0 .3-.2.6-.5.6H19a.6.6 0 0 1-.6-.6v-1.5h2.3v-2.5c-.2-1.2-1.8-1.4-2.6-.8-.3.2-.5.5-.6.8l-.2 1.4v2c0 3.2 4 2.7 3.4 0ZM15.5 10l.3.4.6.1.5-.1.4-.5v.5h1.5V4h-1.2v5c0 .3-.2.6-.5.6a.5.5 0 0 1-.5-.5V4h-1.2v5.4l.1.6ZM11 6.3c0-.6 0-1.1.2-1.5 0-.3.3-.6.5-.8.3-.2.6-.3 1-.3s.7 0 1 .2l.5.5c.2.2.3.5.3.7l.1 1v3l-.4.8-.5.5c-.3.2-.6.2-.9.2l-.8-.1c-.3-.1-.5-.3-.6-.5a2 2 0 0 1-.3-.7v-3Zm1.2 2.6c0 .3.3.6.6.6s.6-.3.6-.6V5.4c0-.4-.3-.7-.6-.7s-.6.3-.6.7V9ZM8 10.6h1.4v-5L11 1.4H9.5l-1 3.1-.8-3.1H6L8 5.6v5Z" fill="#000"/></svg>